<svg width="14" height="14" viewBox="0 0 14 14" fill="none" xmlns="http://www.w3.org/2000/svg">
<g clip-path="url(#clip0_2_5)">
<path d="M13.4222 3.42841C13.2128 2.94347 12.9108 2.50402 12.5332 2.13466C12.1553 1.7642 11.7097 1.4698 11.2207 1.26747C10.7136 1.05683 10.1697 0.949019 9.62067 0.950283C8.85036 0.950283 8.0988 1.16122 7.44567 1.55966C7.28942 1.65497 7.14098 1.75966 7.00036 1.87372C6.85973 1.75966 6.7113 1.65497 6.55505 1.55966C5.90192 1.16122 5.15036 0.950283 4.38005 0.950283C3.82536 0.950283 3.28786 1.05653 2.78005 1.26747C2.28942 1.4706 1.84723 1.76278 1.46755 2.13466C1.08942 2.5036 0.787355 2.94315 0.578484 3.42841C0.361296 3.9331 0.250359 4.46903 0.250359 5.0206C0.250359 5.54091 0.356609 6.0831 0.567546 6.63466C0.744109 7.0956 0.997234 7.57372 1.32067 8.05653C1.83317 8.8206 2.53786 9.61747 3.41286 10.4253C4.86286 11.7643 6.2988 12.6893 6.35973 12.7268L6.73005 12.9643C6.89411 13.069 7.10505 13.069 7.26911 12.9643L7.63942 12.7268C7.70036 12.6878 9.13473 11.7643 10.5863 10.4253C11.4613 9.61747 12.166 8.8206 12.6785 8.05653C13.0019 7.57372 13.2566 7.0956 13.4316 6.63466C13.6425 6.0831 13.7488 5.54091 13.7488 5.0206C13.7504 4.46903 13.6394 3.9331 13.4222 3.42841V3.42841ZM7.00036 11.7284C7.00036 11.7284 1.43786 8.16435 1.43786 5.0206C1.43786 3.42841 2.75505 2.13778 4.38005 2.13778C5.52223 2.13778 6.51286 2.77528 7.00036 3.70653C7.48786 2.77528 8.47848 2.13778 9.62067 2.13778C11.2457 2.13778 12.5629 3.42841 12.5629 5.0206C12.5629 8.16435 7.00036 11.7284 7.00036 11.7284Z" fill="white"/>
<path d="M4.5 2H10.5L12.5 3.5L13 7L7 12L4 9.5L1.5 7L1 3L3 2H4.5Z" fill="white"/>
</g>
<defs>
<clipPath id="clip0_2_5">
<rect width="14" height="14" fill="white"/>
</clipPath>
</defs>
</svg>
