<svg width="40" height="40" viewBox="0 0 40 40" fill="none" xmlns="http://www.w3.org/2000/svg">
<path d="M20 9.21875C19.5442 9.21875 19.107 9.03767 18.7847 8.71534C18.4623 8.39301 18.2812 7.95584 18.2812 7.5V3.75C18.2812 3.29416 18.4623 2.85699 18.7847 2.53466C19.107 2.21233 19.5442 2.03125 20 2.03125C20.4558 2.03125 20.893 2.21233 21.2153 2.53466C21.5377 2.85699 21.7188 3.29416 21.7188 3.75V7.5C21.7188 7.95584 21.5377 8.39301 21.2153 8.71534C20.893 9.03767 20.4558 9.21875 20 9.21875ZM20 37.9688C19.5442 37.9688 19.107 37.7877 18.7847 37.4653C18.4623 37.143 18.2812 36.7058 18.2812 36.25V32.5C18.2812 32.0442 18.4623 31.607 18.7847 31.2847C19.107 30.9623 19.5442 30.7812 20 30.7812C20.4558 30.7812 20.893 30.9623 21.2153 31.2847C21.5377 31.607 21.7188 32.0442 21.7188 32.5V36.25C21.7188 36.7058 21.5377 37.143 21.2153 37.4653C20.893 37.7877 20.4558 37.9688 20 37.9688ZM28.8391 12.8797C28.4992 12.8796 28.167 12.7788 27.8844 12.59C27.6018 12.4012 27.3816 12.1329 27.2514 11.8189C27.1213 11.5049 27.0872 11.1594 27.1535 10.8261C27.2197 10.4927 27.3832 10.1865 27.6234 9.94609L30.275 7.29453C30.5987 6.97921 31.0336 6.80408 31.4855 6.80706C31.9375 6.81004 32.37 6.99088 32.6896 7.31043C33.0091 7.62999 33.19 8.06254 33.1929 8.51445C33.1959 8.96636 33.0208 9.40126 32.7055 9.725L30.0539 12.3766C29.8945 12.5363 29.7052 12.663 29.4967 12.7493C29.2882 12.8357 29.0647 12.88 28.8391 12.8797ZM8.50937 33.2094C8.16942 33.2093 7.83712 33.1085 7.55448 32.9196C7.27185 32.7307 7.05159 32.4622 6.92155 32.1481C6.79151 31.834 6.75754 31.4884 6.82393 31.155C6.89032 30.8216 7.05409 30.5153 7.29453 30.275L9.94609 27.6234C10.1049 27.4604 10.2945 27.3305 10.5039 27.2413C10.7134 27.1521 10.9384 27.1055 11.166 27.104C11.3936 27.1025 11.6193 27.1462 11.8298 27.2326C12.0404 27.319 12.2317 27.4464 12.3927 27.6073C12.5536 27.7683 12.681 27.9596 12.7674 28.1702C12.8538 28.3807 12.8975 28.6064 12.896 28.834C12.8945 29.0616 12.8479 29.2866 12.7587 29.4961C12.6695 29.7055 12.5396 29.8951 12.3766 30.0539L9.725 32.7055C9.56556 32.8654 9.37609 32.9923 9.16747 33.0787C8.95885 33.1652 8.7352 33.2096 8.50937 33.2094ZM36.25 21.7188H32.5C32.0442 21.7188 31.607 21.5377 31.2847 21.2153C30.9623 20.893 30.7812 20.4558 30.7812 20C30.7812 19.5442 30.9623 19.107 31.2847 18.7847C31.607 18.4623 32.0442 18.2812 32.5 18.2812H36.25C36.7058 18.2812 37.143 18.4623 37.4653 18.7847C37.7877 19.107 37.9688 19.5442 37.9688 20C37.9688 20.4558 37.7877 20.893 37.4653 21.2153C37.143 21.5377 36.7058 21.7188 36.25 21.7188ZM7.5 21.7188H3.75C3.29416 21.7188 2.85699 21.5377 2.53466 21.2153C2.21233 20.893 2.03125 20.4558 2.03125 20C2.03125 19.5442 2.21233 19.107 2.53466 18.7847C2.85699 18.4623 3.29416 18.2812 3.75 18.2812H7.5C7.95584 18.2812 8.39301 18.4623 8.71534 18.7847C9.03767 19.107 9.21875 19.5442 9.21875 20C9.21875 20.4558 9.03767 20.893 8.71534 21.2153C8.39301 21.5377 7.95584 21.7188 7.5 21.7188ZM31.4906 33.2094C31.2648 33.2096 31.0411 33.1652 30.8325 33.0787C30.6239 32.9923 30.4344 32.8654 30.275 32.7055L27.6234 30.0539C27.3081 29.7302 27.133 29.2953 27.136 28.8434C27.1389 28.3914 27.3198 27.9589 27.6393 27.6393C27.9589 27.3198 28.3914 27.1389 28.8434 27.136C29.2953 27.133 29.7302 27.3081 30.0539 27.6234L32.7055 30.275C32.9459 30.5153 33.1097 30.8216 33.1761 31.155C33.2425 31.4884 33.2085 31.834 33.0784 32.1481C32.9484 32.4622 32.7281 32.7307 32.4455 32.9196C32.1629 33.1085 31.8306 33.2093 31.4906 33.2094ZM11.1609 12.8797C10.9353 12.8801 10.7117 12.8359 10.5032 12.7495C10.2947 12.6632 10.1054 12.5364 9.94609 12.3766L7.29453 9.725C6.97921 9.40126 6.80408 8.96636 6.80706 8.51445C6.81004 8.06254 6.99088 7.62999 7.31043 7.31043C7.62999 6.99088 8.06254 6.81004 8.51445 6.80706C8.96636 6.80408 9.40126 6.97921 9.725 7.29453L12.3766 9.94609C12.6168 10.1865 12.7803 10.4927 12.8465 10.8261C12.9128 11.1594 12.8787 11.5049 12.7486 11.8189C12.6184 12.1329 12.3982 12.4012 12.1156 12.59C11.833 12.7788 11.5008 12.8796 11.1609 12.8797ZM20 27.9688C18.4239 27.9688 16.8833 27.5014 15.5728 26.6258C14.2623 25.7502 13.241 24.5056 12.6378 23.0495C12.0347 21.5934 11.8769 19.9912 12.1844 18.4454C12.4918 16.8996 13.2508 15.4797 14.3652 14.3652C15.4797 13.2508 16.8996 12.4918 18.4454 12.1844C19.9912 11.8769 21.5934 12.0347 23.0495 12.6378C24.5056 13.241 25.7502 14.2623 26.6258 15.5728C27.5014 16.8833 27.9688 18.4239 27.9688 20C27.9663 22.1127 27.1259 24.1381 25.632 25.632C24.1381 27.1259 22.1127 27.9663 20 27.9688Z" fill="#1F1F1F"/>
</svg>
