<svg width="40" height="40" viewBox="0 0 40 40" fill="none" xmlns="http://www.w3.org/2000/svg">
<path d="M33.0464 33.8326L22.6121 23.3982C24.2313 21.3049 25.1071 18.7455 25.1071 16.0536C25.1071 12.8313 23.8496 9.80982 21.5754 7.5317C19.3013 5.25357 16.2719 4 13.0536 4C9.83527 4 6.8058 5.25759 4.5317 7.5317C2.25357 9.8058 1 12.8313 1 16.0536C1 19.2719 2.25759 22.3013 4.5317 24.5754C6.8058 26.8536 9.83125 28.1071 13.0536 28.1071C15.7455 28.1071 18.3009 27.2312 20.3942 25.6161L30.8286 36.0464C30.8592 36.077 30.8955 36.1013 30.9355 36.1179C30.9755 36.1345 31.0183 36.143 31.0616 36.143C31.1049 36.143 31.1477 36.1345 31.1877 36.1179C31.2277 36.1013 31.264 36.077 31.2946 36.0464L33.0464 34.2987C33.077 34.2681 33.1013 34.2317 33.1179 34.1918C33.1345 34.1518 33.143 34.1089 33.143 34.0656C33.143 34.0223 33.1345 33.9795 33.1179 33.9395C33.1013 33.8995 33.077 33.8632 33.0464 33.8326ZM19.4179 22.4179C17.7143 24.1174 15.4563 25.0536 13.0536 25.0536C10.6509 25.0536 8.39286 24.1174 6.68929 22.4179C4.98973 20.7143 4.05357 18.4563 4.05357 16.0536C4.05357 13.6509 4.98973 11.3888 6.68929 9.68929C8.39286 7.98973 10.6509 7.05357 13.0536 7.05357C15.4563 7.05357 17.7183 7.98571 19.4179 9.68929C21.1174 11.3929 22.0536 13.6509 22.0536 16.0536C22.0536 18.4563 21.1174 20.7183 19.4179 22.4179Z" fill="#1F1F1F"/>
</svg>
