<svg width="34" height="30" viewBox="0 0 34 30" fill="none" xmlns="http://www.w3.org/2000/svg">
<path d="M32.6583 21.2681H10.089L11.2222 19.0033L30.0508 18.9699C30.6875 18.9699 31.2333 18.5236 31.347 17.9063L33.9545 3.58498C34.0227 3.20937 33.9204 2.82261 33.6703 2.52882C33.5466 2.38423 33.3924 2.26776 33.2184 2.18749C33.0443 2.10722 32.8545 2.06507 32.6621 2.06396L8.7094 1.98587L8.50474 1.04128C8.37588 0.438825 7.82254 0 7.1934 0H1.33787C0.983042 0 0.642751 0.138308 0.391852 0.384497C0.140953 0.630687 0 0.964591 0 1.31276C0 1.66092 0.140953 1.99482 0.391852 2.24101C0.642751 2.4872 0.983042 2.62551 1.33787 2.62551H6.10946L7.0039 6.79807L9.20589 17.2592L6.37097 21.7999C6.22375 21.9949 6.13508 22.2264 6.11498 22.4683C6.09489 22.7101 6.14418 22.9527 6.25727 23.1685C6.48467 23.611 6.94326 23.8899 7.45112 23.8899H9.83123C9.32382 24.5512 9.04975 25.3567 9.0505 26.1845C9.0505 28.2893 10.7939 30 12.939 30C15.0842 30 16.8276 28.2893 16.8276 26.1845C16.8276 25.3551 16.5471 24.5482 16.0468 23.8899H22.1525C21.6451 24.5512 21.371 25.3567 21.3718 26.1845C21.3718 28.2893 23.1151 30 25.2603 30C27.4054 30 29.1488 28.2893 29.1488 26.1845C29.1488 25.3551 28.8684 24.5482 28.3681 23.8899H32.6621C33.3974 23.8899 34 23.3023 34 22.5772C33.9978 22.2294 33.8555 21.8965 33.6041 21.6513C33.3528 21.4061 33.0128 21.2683 32.6583 21.2681ZM9.26653 4.57419L31.0893 4.64485L28.9517 16.389L11.8096 16.4187L9.26653 4.57419ZM12.939 27.3596C12.2796 27.3596 11.7414 26.8315 11.7414 26.1845C11.7414 25.5374 12.2796 25.0093 12.939 25.0093C13.5985 25.0093 14.1367 25.5374 14.1367 26.1845C14.1367 26.4961 14.0105 26.795 13.7859 27.0154C13.5613 27.2358 13.2567 27.3596 12.939 27.3596ZM25.2603 27.3596C24.6008 27.3596 24.0626 26.8315 24.0626 26.1845C24.0626 25.5374 24.6008 25.0093 25.2603 25.0093C25.9197 25.0093 26.4579 25.5374 26.4579 26.1845C26.4579 26.4961 26.3317 26.795 26.1071 27.0154C25.8825 27.2358 25.5779 27.3596 25.2603 27.3596Z" fill="black" fill-opacity="0.85"/>
</svg>
