<svg width="14" height="14" viewBox="0 0 14 14" fill="none" xmlns="http://www.w3.org/2000/svg">
<g clip-path="url(#clip0_3_2099)">
<path d="M13.4222 3.42839C13.2128 2.94345 12.9108 2.504 12.5332 2.13464C12.1553 1.76418 11.7097 1.46978 11.2207 1.26745C10.7136 1.05682 10.1698 0.949004 9.62068 0.950267C8.85037 0.950267 8.0988 1.1612 7.44568 1.55964C7.28943 1.65495 7.14099 1.75964 7.00037 1.87371C6.85974 1.75964 6.7113 1.65495 6.55505 1.55964C5.90193 1.1612 5.15037 0.950267 4.38005 0.950267C3.82537 0.950267 3.28787 1.05652 2.78005 1.26745C2.28943 1.47058 1.84724 1.76277 1.46755 2.13464C1.08942 2.50358 0.787363 2.94314 0.578491 3.42839C0.361304 3.93308 0.250366 4.46902 0.250366 5.02058C0.250366 5.54089 0.356616 6.08308 0.567554 6.63464C0.744116 7.09558 0.997241 7.57371 1.32068 8.05652C1.83318 8.82058 2.53787 9.61746 3.41287 10.4253C4.86287 11.7643 6.2988 12.6893 6.35974 12.7268L6.73005 12.9643C6.89412 13.069 7.10505 13.069 7.26912 12.9643L7.63943 12.7268C7.70037 12.6878 9.13474 11.7643 10.5863 10.4253C11.4613 9.61746 12.166 8.82058 12.6785 8.05652C13.0019 7.57371 13.2566 7.09558 13.4316 6.63464C13.6426 6.08308 13.7488 5.54089 13.7488 5.02058C13.7504 4.46902 13.6394 3.93308 13.4222 3.42839ZM7.00037 11.7284C7.00037 11.7284 1.43787 8.16433 1.43787 5.02058C1.43787 3.42839 2.75505 2.13777 4.38005 2.13777C5.52224 2.13777 6.51287 2.77527 7.00037 3.70652C7.48787 2.77527 8.47849 2.13777 9.62068 2.13777C11.2457 2.13777 12.5629 3.42839 12.5629 5.02058C12.5629 8.16433 7.00037 11.7284 7.00037 11.7284Z" fill="white"/>
</g>
<defs>
<clipPath id="clip0_3_2099">
<rect width="14" height="14" fill="white"/>
</clipPath>
</defs>
</svg>
